<?xml version="1.0" encoding="UTF-8"?>
<svg width="400" height="400" viewBox="0 0 400 400" xmlns="http://www.w3.org/2000/svg">
  <defs>
    <pattern id="nodes" x="0" y="0" width="100" height="100" patternUnits="userSpaceOnUse">
      <circle cx="20" cy="20" r="8" fill="white" opacity="0.2"/>
      <circle cx="20" cy="20" r="4" fill="white" opacity="0.7"/>
      <circle cx="50" cy="30" r="6" fill="white" opacity="0.2"/>
      <circle cx="50" cy="30" r="3" fill="white" opacity="0.6"/>
      <circle cx="80" cy="40" r="10" fill="white" opacity="0.2"/>
      <circle cx="80" cy="40" r="5" fill="white" opacity="0.7"/>
      <circle cx="30" cy="60" r="7" fill="white" opacity="0.2"/>
      <circle cx="30" cy="60" r="3.5" fill="white" opacity="0.6"/>
      <circle cx="70" cy="80" r="9" fill="white" opacity="0.2"/>
      <circle cx="70" cy="80" r="4.5" fill="white" opacity="0.7"/>
      <line x1="20" y1="20" x2="50" y2="30" stroke="white" stroke-width="1.5" opacity="0.4"/>
      <line x1="50" y1="30" x2="80" y2="40" stroke="white" stroke-width="1.5" opacity="0.4"/>
      <line x1="80" y1="40" x2="30" y2="60" stroke="white" stroke-width="1.5" opacity="0.4"/>
      <line x1="30" y1="60" x2="70" y2="80" stroke="white" stroke-width="1.5" opacity="0.4"/>
      <line x1="20" y1="20" x2="70" y2="80" stroke="white" stroke-width="1" opacity="0.2" stroke-dasharray="3,3"/>
      <line x1="50" y1="30" x2="30" y2="60" stroke="white" stroke-width="1" opacity="0.2" stroke-dasharray="3,3"/>
    </pattern>
  </defs>
  <rect width="400" height="400" fill="url(#nodes)"/>
</svg>