<?xml version="1.0" encoding="UTF-8"?>
<svg width="400" height="400" viewBox="0 0 400 400" xmlns="http://www.w3.org/2000/svg">
  <defs>
    <pattern id="nodes" x="0" y="0" width="100" height="100" patternUnits="userSpaceOnUse">
      <circle cx="10" cy="10" r="2" fill="white" opacity="0.6"/>
      <circle cx="30" cy="20" r="4" fill="white" opacity="0.7"/>
      <circle cx="50" cy="30" r="3" fill="white" opacity="0.6"/>
      <circle cx="70" cy="50" r="5" fill="white" opacity="0.8"/>
      <circle cx="90" cy="70" r="3" fill="white" opacity="0.6"/>
      <circle cx="20" cy="80" r="4" fill="white" opacity="0.7"/>
      <circle cx="50" cy="90" r="2" fill="white" opacity="0.6"/>
      <line x1="10" y1="10" x2="30" y2="20" stroke="white" stroke-width="1" opacity="0.4"/>
      <line x1="30" y1="20" x2="50" y2="30" stroke="white" stroke-width="1" opacity="0.4"/>
      <line x1="50" y1="30" x2="70" y2="50" stroke="white" stroke-width="1" opacity="0.4"/>
      <line x1="70" y1="50" x2="90" y2="70" stroke="white" stroke-width="1" opacity="0.4"/>
      <line x1="90" y1="70" x2="20" y2="80" stroke="white" stroke-width="1" opacity="0.4"/>
      <line x1="20" y1="80" x2="50" y2="90" stroke="white" stroke-width="1" opacity="0.4"/>
      <line x1="10" y1="10" x2="50" y2="90" stroke="white" stroke-width="1" opacity="0.2"/>
      <line x1="30" y1="20" x2="90" y2="70" stroke="white" stroke-width="1" opacity="0.2"/>
    </pattern>
  </defs>
  <rect width="400" height="400" fill="url(#nodes)"/>
</svg>