<?xml version="1.0" encoding="UTF-8"?>
<svg width="400" height="400" viewBox="0 0 400 400" xmlns="http://www.w3.org/2000/svg">
  <defs>
    <pattern id="nodes" x="0" y="0" width="100" height="100" patternUnits="userSpaceOnUse">
      <rect x="10" y="10" width="8" height="8" rx="1" fill="white" opacity="0.6"/>
      <rect x="40" y="20" width="10" height="10" rx="1" fill="white" opacity="0.7"/>
      <rect x="70" y="30" width="6" height="6" rx="1" fill="white" opacity="0.6"/>
      <rect x="20" y="50" width="12" height="12" rx="1" fill="white" opacity="0.8"/>
      <rect x="60" y="60" width="8" height="8" rx="1" fill="white" opacity="0.6"/>
      <rect x="80" y="80" width="10" height="10" rx="1" fill="white" opacity="0.7"/>
      <line x1="14" y1="14" x2="45" y2="25" stroke="white" stroke-width="1" opacity="0.4"/>
      <line x1="45" y1="25" x2="73" y2="33" stroke="white" stroke-width="1" opacity="0.4"/>
      <line x1="73" y1="33" x2="26" y2="56" stroke="white" stroke-width="1" opacity="0.4"/>
      <line x1="26" y1="56" x2="64" y2="64" stroke="white" stroke-width="1" opacity="0.4"/>
      <line x1="64" y1="64" x2="85" y2="85" stroke="white" stroke-width="1" opacity="0.4"/>
      <line x1="14" y1="14" x2="85" y2="85" stroke="white" stroke-width="1" opacity="0.15" stroke-dasharray="2,4"/>
      <line x1="45" y1="25" x2="64" y2="64" stroke="white" stroke-width="1" opacity="0.15" stroke-dasharray="2,4"/>
    </pattern>
  </defs>
  <rect width="400" height="400" fill="url(#nodes)"/>
</svg>